<svg id="Layer_1" data-name="Layer 1" xmlns="http://www.w3.org/2000/svg" viewBox="0 0 292 69.94"><defs><style>.cls-1{fill:#ffed00;}</style></defs><rect x="165.86" y="46.81" width="66.12" height="0.93"/><rect x="5.2" y="46.81" width="66.12" height="0.93"/><path d="M31.93,34.71V27.63c0-2.44-.61-3.25-2.59-3.25H26V21.64h4.16c3.9,0,5.38,1.48,5.38,5.66v7.41Z"/><path d="M40.66,29.39H37.09V21.64h3.57Z"/><path d="M48.23,21.64c3.62,0,5.19,1.41,5.19,5.38v2.31c0,4-1.57,5.38-5.19,5.38H42.61V32h4.91c1.78,0,2.33-.84,2.33-3V27.39c0-2.16-.55-3-2.33-3H46v4.29h-3.4v-7Z"/><path d="M66.55,27.78c0,5.3-2.33,6.93-6.78,6.93H55.83L54.41,21.64H66.55Zm-3.49-3.4H58.18L59,32h.78c2.51,0,3.29-.95,3.29-4.18Z"/><path d="M80.63,21.64c3.75,0,5.27,1.48,5.27,5.55v7.52H82.33V27.52c0-2.33-.65-3.14-2.48-3.14H78.3V34.71H72.59V32H74.9V24.38H73.35V21.64Z"/><path d="M91.06,29.39H87.49V21.64h3.57Z"/><path d="M99.05,21.64c3.92,0,5.47,1.78,5.47,6.18v6.89H98.11V32h2.83V27.91c0-2.48-.56-3.53-2.55-3.53h-.67L96,34.71H92.38l1.83-10.33H92.55V21.64Z"/><path d="M115.69,21.64v2.74h-1.4V34.71h-3.57V24.38h-5.56V21.64Z"/><path d="M128.45,21.64v7.51c0,4.06-1.68,5.56-5.19,5.56H122.1V32h.59c1.31,0,2.2-.41,2.2-2.76V24.38h-8V21.64Zm-11.55,5.6h3.57V38H116.9Z"/><path d="M142.34,34.71H138.7l-4.42-6.78c-.61.22-.81.72-.81,1.64v5.14h-3.53V29.59c0-2,.89-3.53,2.85-3.92l-2.63-4h3.61l4,6.05c.63-.21.89-.69.89-1.61V21.64h3.56v4.59a3.71,3.71,0,0,1-2.9,3.82Z"/><path d="M155,21.64V34.71h-3.55V24.38h-7.76V21.64Zm-11.26,5.6h3.57v7.47h-3.57Z"/><path d="M173.49,21.64V34.71h-3.55V24.38h-7.76V21.64Zm-11.26,5.6h3.57v7.47h-3.57Z"/><path d="M177,34.71l3.62-10.33h-5.93V19.46h3.4v2.18h7.11l-4.45,13.07Z"/><path d="M187.66,34.71l3.62-10.33h-5.93V19.46h3.4v2.18h7.1l-4.44,13.07Z"/><path d="M200.24,21.64c4.06,0,5.45,1.59,5.45,5.92v1.22c0,4.34-1.39,5.93-5.45,5.93h-3.87V32h3c2.22,0,2.77-1,2.77-3.37v-.83c0-2.35-.55-3.38-2.77-3.38h-3V21.64Z"/><path d="M213.35,21.64c3.92,0,5.47,1.78,5.47,6.18v6.89h-6.4V32h2.83V27.91c0-2.48-.57-3.53-2.55-3.53H212l-1.74,10.33h-3.6l1.84-10.33h-1.66V21.64Z"/><path d="M231.8,21.64V34.71h-3.55V24.38h-7.76V21.64Zm-11.27,5.6h3.58v7.47h-3.58Z"/><path d="M75.78,47.83h2.31c-.11,1.43.45,2,1.76,2,1.1,0,1.66-.35,1.66-1s-.29-1-2-1.57c-3.19-1.06-3.69-2-3.69-3.45s1.31-2.61,4.05-2.61c3.07,0,4.08,1.4,4,3.45H81.59A1.43,1.43,0,0,0,80,43c-1.12,0-1.62.35-1.62.92s.26.81,1.91,1.34c3.16,1,3.77,1.93,3.77,3.56s-1.5,2.8-4.24,2.8C77.25,51.65,75.53,50.75,75.78,47.83Z"/><path d="M91.36,46.46v5.07H89.12v-.78A2.73,2.73,0,0,1,87,51.6a2.34,2.34,0,0,1-2.55-2.41c0-1.81,1.43-2.93,4.65-3-.09-.83-.47-1-1.27-1a11.84,11.84,0,0,0-2.46.4L85,44a11.88,11.88,0,0,1,3.35-.57C90.48,43.45,91.36,44.2,91.36,46.46Zm-2.24,1.9v-.69c-2,.15-2.38.67-2.38,1.26s.34.9,1.07.88A1.27,1.27,0,0,0,89.12,48.36Z"/><path d="M100,47.53c0,2.66-1.08,4.06-3.32,4.06a3,3,0,0,1-2-.68v3.53H92.37V43.53h2.32v.64a2.87,2.87,0,0,1,2-.7C98.94,43.47,100,44.86,100,47.53Zm-2.33,0c0-1.65-.46-2.45-1.54-2.45s-1.56.8-1.56,2.45S95.07,50,96.15,50,97.69,49.17,97.69,47.53Z"/><path d="M103,42.71H100.7V40.9H103Zm0,.82v8H100.7v-8Z"/><path d="M104.13,51.53v-8h2.2v1.63h0A2.35,2.35,0,0,1,109,43.53h.26v2.18H109c-1.5,0-2.49.38-2.49,2.27v3.55Z"/><path d="M112.87,47.3V45.55c0-3.06,1.34-4.3,4.31-4.3s4.3,1.24,4.3,4H119c0-1.5-.58-2.11-1.85-2.11s-1.86.61-1.86,2.21v2.24c0,1.63.59,2.25,1.86,2.25s1.85-.62,1.85-2.15h2.45c0,2.73-1.34,4-4.3,4S112.87,50.37,112.87,47.3Z"/><path d="M122,47.54c0-2.73,1.26-4.12,3.87-4.12s3.87,1.39,3.87,4.12-1.27,4.11-3.87,4.11S122,50.25,122,47.54Zm5.41,0c0-1.68-.47-2.45-1.54-2.45s-1.56.77-1.56,2.45S124.81,50,125.9,50,127.44,49.2,127.44,47.53Z"/><path d="M132.75,51.53c-1.66,0-2.32-.35-2.32-2V40.61h2.33v8.58c0,.51.18.62.62.62h.56v1.72Z"/><path d="M136.69,51.53c-1.66,0-2.31-.35-2.31-2V40.61h2.32v8.58c0,.51.18.62.62.62h.56v1.72Z"/><path d="M145.38,48.2h-5c.1,1.29.56,1.77,1.36,1.77A1.21,1.21,0,0,0,143,49h2.28c-.23,1.57-1.38,2.69-3.58,2.69-2.47,0-3.77-1.4-3.77-4.11s1.34-4.12,3.77-4.12S145.55,45,145.38,48.2Zm-5-1.39h2.73c-.07-1.22-.55-1.7-1.37-1.7S140.46,45.58,140.33,46.81Z"/><path d="M151.28,43.53h2.33v7.52c0,2.5-1.16,3.48-3.57,3.48a9.33,9.33,0,0,1-3.26-.65l.57-1.55a6.69,6.69,0,0,0,2.36.48c1.09,0,1.57-.35,1.57-1.76v-.29a2.56,2.56,0,0,1-1.88.67c-2.37,0-3.45-1.41-3.45-4s1.08-4,3.32-4a2.85,2.85,0,0,1,2,.71Zm.1,3.91c0-1.56-.48-2.36-1.55-2.36s-1.55.8-1.55,2.36.47,2.37,1.55,2.37S151.38,49,151.38,47.44Z"/><path d="M161.73,48.2h-5c.1,1.29.57,1.77,1.37,1.77a1.2,1.2,0,0,0,1.32-1h2.29c-.24,1.57-1.39,2.69-3.58,2.69-2.48,0-3.77-1.4-3.77-4.11s1.34-4.12,3.77-4.12S161.9,45,161.73,48.2Zm-5-1.39h2.74c-.08-1.22-.56-1.7-1.37-1.7S156.81,45.58,156.68,46.81Z"/><path d="M7.45,35.55H6.29A6.34,6.34,0,0,1,4.76,31.3a6.23,6.23,0,0,1,1.53-4.21H7.45A7.48,7.48,0,0,0,6.13,31.3,7.63,7.63,0,0,0,7.45,35.55Z"/><path d="M9.88,34.52V31.46c0-1.05-.26-1.4-1.12-1.4H7.3V28.88H9.1c1.68,0,2.32.64,2.32,2.44v3.2Z"/><path d="M13.18,30.62H12v-1l.59-1.7h.92Zm1.7,0H13.67v-1l.6-1.7h.93Z"/><path d="M19,28.88h1.54v2.74c0,1.68-.76,2.36-2.3,2.8l-2.49.7L15.41,34l1.11-.32-1-4.76h1.54l.88,4.34c.79-.23,1-.51,1-1.64Z"/><path d="M20.66,27.09h1.16a6.23,6.23,0,0,1,1.53,4.21,6.34,6.34,0,0,1-1.53,4.25H20.66A7.63,7.63,0,0,0,22,31.3,7.48,7.48,0,0,0,20.66,27.09Z"/><path class="cls-1" d="M285.13,16.9c-3.22-4.53-7.82-4.65-13.33-5.92L252.55,6.54l-7.43-4.8c-.11,0-3-2.1-7.19,3.44s-1.65,7.68-1.54,7.7l7.17,4.38-3.23,4.24a11.71,11.71,0,0,0-1.22,2.68c-.13.56-.28,1.24-.33,1.47l-5.22,33.88a6.7,6.7,0,0,0,1.3,5.16c.35.55,4.61,2.13,5.08,2.12,5.53,2.23,19.59,1.44,27.07-1.69C285.22,57.59,291.46,26,285.13,16.9m-13,23.8c-3.27,10-15.79,16.51-23.3,14.66l4.68-34.13L268,24.56c7.88,1.82,6.31,9.63,4.22,16.14"/></svg>